<svg xmlns="http://www.w3.org/2000/svg" xmlns:xlink="http://www.w3.org/1999/xlink" width="500" zoomAndPan="magnify" viewBox="0 0 375 374.999991" height="500" preserveAspectRatio="xMidYMid meet" version="1.0"><defs><g/><clipPath id="c57c04875d"><path d="M 17.195312 203 L 175 203 L 175 324.914062 L 17.195312 324.914062 Z M 17.195312 203 " clip-rule="nonzero"/></clipPath><clipPath id="86c76fc179"><path d="M 17.195312 203 L 175 203 L 175 324.914062 L 17.195312 324.914062 Z M 17.195312 203 " clip-rule="nonzero"/></clipPath></defs><path fill="#fffbe6" d="M 23.527344 278.523438 C 23.605469 277.945312 23.449219 279.125 23.527344 278.523438 Z M 23.527344 278.523438 " fill-opacity="1" fill-rule="nonzero"/><path fill="#fffbe6" d="M 23.527344 278.523438 C 23.523438 278.578125 23.511719 278.644531 23.5 278.734375 C 23.503906 278.613281 23.523438 278.496094 23.550781 278.382812 C 23.550781 278.363281 23.554688 278.34375 23.554688 278.320312 C 23.542969 278.40625 23.535156 278.46875 23.527344 278.523438 Z M 23.527344 278.523438 " fill-opacity="1" fill-rule="nonzero"/><g clip-path="url(#c57c04875d)"><path fill="#fffbe6" d="M 173.9375 318.132812 C 173.628906 317.859375 173.289062 317.628906 172.9375 317.414062 C 172.601562 316.898438 172.011719 316.519531 171.632812 316.03125 C 169.476562 313.730469 167.566406 311.203125 165.335938 308.972656 C 165.019531 308.671875 164.707031 308.308594 164.300781 308.15625 C 164.054688 307.929688 163.8125 307.707031 163.617188 307.464844 C 161.65625 305.503906 159.753906 303.484375 157.835938 301.484375 C 157.972656 301.328125 158.097656 301.164062 158.195312 300.988281 C 160.128906 296.464844 152.613281 295.574219 149.679688 296.511719 C 149.542969 296.523438 149.421875 296.546875 149.304688 296.582031 C 149.230469 296.492188 149.164062 296.390625 149.082031 296.308594 C 150.816406 295.910156 152.652344 294.867188 152.808594 292.949219 C 152.875 291.761719 152.082031 290.722656 151.050781 290.214844 C 150.132812 289.738281 149.117188 289.539062 148.097656 289.550781 C 148.121094 289.492188 148.15625 289.4375 148.179688 289.375 C 148.777344 286.941406 147.449219 285.605469 145.539062 285.019531 C 145.265625 284.601562 144.847656 284.25 144.558594 283.859375 C 143.855469 283.027344 142.890625 281.59375 142.492188 281.046875 C 142 280.4375 141.582031 279.546875 140.753906 279.410156 C 140.066406 279.273438 138.484375 279.089844 137.390625 278.957031 C 127.980469 278.210938 118.566406 277.476562 109.140625 276.988281 C 107.75 276.949219 106.339844 276.847656 104.929688 276.789062 C 105.761719 275.617188 106.355469 274.261719 106.660156 272.890625 C 106.933594 271.425781 106.898438 269.917969 106.601562 268.457031 C 107.074219 268.476562 107.550781 268.480469 107.992188 268.582031 C 109.070312 268.6875 110.605469 268.777344 110.828125 268.832031 C 111.046875 269.542969 111.25 270.269531 111.773438 270.8125 C 113.570312 272.316406 115.011719 270.128906 115.25 268.4375 C 115.855469 264.578125 112.167969 265.570312 109.472656 265.265625 C 108.101562 265.199219 106.734375 265.113281 105.367188 265.023438 C 104.777344 263.882812 104.042969 262.816406 103.164062 261.90625 C 97.859375 257 91.054688 254.015625 86.503906 249.773438 C 80.453125 244.433594 76.039062 239.4375 72.109375 232.960938 C 69.242188 228.570312 67.125 223.308594 66.753906 219.199219 C 66.300781 215.632812 66.535156 211.964844 66.09375 208.425781 C 66.058594 208.324219 66.015625 208.238281 65.960938 208.160156 C 65.953125 207.816406 65.824219 207.480469 65.554688 207.226562 C 65.335938 206.816406 63.882812 206.695312 63.769531 206.695312 C 55.140625 205.671875 46.476562 205.03125 37.8125 204.433594 C 36.195312 204.324219 34.570312 204.160156 33.945312 204.015625 C 33.363281 203.90625 32.738281 203.675781 32.191406 204.023438 C 31.628906 204.328125 31.4375 204.960938 31.554688 205.527344 C 31.296875 206.027344 31.246094 206.640625 31.117188 207.179688 C 29.199219 219.597656 31.640625 232.5625 36.6875 243.980469 C 40.015625 250.546875 44.917969 256.207031 50.332031 261.144531 C 52.632812 263.214844 54.726562 264.597656 56.484375 265.917969 C 55.957031 265.96875 55.433594 266.011719 54.917969 266.050781 C 53.816406 266.09375 52.71875 266.144531 51.617188 266.199219 C 50.65625 266.238281 49.695312 266.265625 48.738281 266.332031 C 48.734375 266.351562 48.742188 266.386719 48.742188 266.410156 C 48.5625 266.421875 48.371094 266.433594 48.207031 266.449219 C 47.160156 266.8125 47.085938 268.382812 48.039062 268.90625 C 48.394531 269.128906 48.8125 269.097656 49.210938 269.09375 C 50.304688 269.105469 51.398438 269.089844 52.496094 269.0625 C 52.632812 271.316406 52.828125 273.5625 53.027344 275.808594 C 53.027344 275.859375 53.042969 275.902344 53.046875 275.949219 C 48.210938 276.265625 43.371094 276.59375 38.519531 276.6875 C 33.835938 276.785156 29.078125 276.753906 24.429688 277.078125 C 23.898438 277.269531 23.640625 277.71875 23.605469 278.195312 C 23.585938 278.257812 23.5625 278.320312 23.550781 278.382812 C 22.601562 289.28125 19.492188 303.433594 18.238281 314.214844 C 18.097656 315.246094 17.328125 321.816406 17.238281 323.230469 C 17.289062 323.910156 17.835938 324.289062 18.414062 324.339844 C 18.617188 324.476562 18.851562 324.570312 19.144531 324.5625 C 50.414062 324.464844 81.667969 323.324219 112.90625 322.125 C 125.015625 321.921875 137.125 322.042969 149.230469 321.695312 C 156.90625 321.460938 164.597656 321.796875 172.265625 321.382812 C 174 321.414062 175.292969 319.578125 173.9375 318.132812 Z M 173.9375 318.132812 " fill-opacity="1" fill-rule="nonzero"/></g><path fill="#0a714e" d="M 353.476562 167.925781 C 356.050781 162.933594 357.773438 155.742188 353.757812 151.070312 C 351.832031 149.03125 348.824219 148.410156 346.113281 148.320312 C 342.996094 148.40625 339.992188 149.652344 337.304688 151.167969 C 326.636719 157.40625 322.804688 170.503906 321.796875 182.121094 C 321.195312 188.289062 321.289062 194.523438 322.242188 200.648438 C 323.171875 207.414062 325.121094 213.972656 326.550781 220.632812 C 327.757812 226.621094 327.960938 233.304688 328.378906 240.453125 C 329.351562 259.070312 324.09375 280.292969 307.28125 288.410156 C 307.058594 288.523438 306.832031 288.632812 306.609375 288.742188 C 307.285156 281.777344 307.683594 274.78125 307.574219 267.785156 C 307.363281 252.277344 304.828125 236.789062 300.644531 221.871094 C 295.390625 205.171875 286.882812 189.179688 274.765625 176.441406 C 268.261719 169.75 260.980469 163.855469 253.148438 158.789062 C 247.335938 155.164062 241.074219 152.300781 235.449219 148.363281 C 228.085938 143.339844 223.753906 140.371094 217.664062 134.84375 C 217.613281 134.796875 217.570312 134.753906 217.519531 134.710938 C 216.359375 132.441406 215.78125 130.945312 215.113281 127.945312 C 214.007812 122.847656 214.09375 116.3125 213.929688 110.039062 C 213.855469 106.25 214.113281 102.3125 212.71875 98.714844 C 211.777344 96 209.457031 94.113281 207.285156 92.375 C 203.542969 89.371094 199.722656 86.472656 195.851562 83.636719 C 194.910156 82.988281 191.890625 80.210938 189.890625 77.988281 C 191.566406 74.089844 192.695312 69.964844 193.480469 65.800781 C 193.910156 62.949219 194.503906 58.785156 193.839844 54.738281 C 193.371094 51.9375 192.164062 47.410156 188.441406 48.390625 C 186.5625 49.058594 186.070312 50.058594 184.160156 51.601562 C 180.515625 54.871094 177.882812 56.941406 174.34375 59.519531 C 170.78125 62.097656 167.078125 64.464844 163.546875 67.078125 C 163.328125 67.261719 163.097656 67.441406 162.867188 67.617188 C 154.28125 68.054688 145.746094 69.828125 137.675781 72.746094 C 133.570312 74.4375 129.398438 76.21875 125.546875 78.496094 C 125 78.394531 124.457031 78.269531 123.910156 78.175781 C 118.730469 77.257812 113.507812 76.648438 108.28125 76.070312 C 103.589844 75.679688 98.828125 74.265625 95.226562 75.804688 C 93.019531 76.855469 93.347656 78.875 94.390625 80.691406 C 97.324219 86.226562 101.417969 89.707031 105.796875 94.722656 C 107.929688 97.136719 110.011719 99.597656 112 102.125 C 112.164062 102.265625 112.304688 102.46875 112.453125 102.699219 C 112.324219 105.613281 112.207031 108.527344 112.1875 111.445312 C 112.257812 119.554688 112.558594 127.808594 114.777344 135.652344 C 115.589844 138.25 116.277344 140.980469 117.804688 143.261719 C 119.488281 145.695312 122.210938 146.949219 124.804688 148.171875 C 127.019531 149.230469 131.40625 152.035156 132.222656 152.722656 C 134.109375 154.179688 135.078125 155.382812 136.050781 156.910156 C 137.019531 163.296875 137.46875 169.539062 139.589844 176.382812 C 142.476562 185.671875 148.199219 196.476562 148.960938 204.828125 C 149.453125 213.449219 140.808594 218.152344 131.984375 222.972656 C 127.253906 225.453125 123.332031 227.804688 122.441406 233.542969 C 121.777344 237.386719 122.410156 241.28125 122.78125 245.117188 C 123.269531 249.058594 123.921875 253.28125 126.785156 256.261719 C 128.894531 258.421875 132.5625 259.886719 135.179688 257.757812 C 135.667969 257.421875 137.554688 255.875 138.539062 254.214844 C 139.867188 252.125 140.625 249.757812 141.511719 247.464844 C 142.042969 246.058594 143.355469 244.992188 144.113281 244.667969 C 148.753906 243.023438 153.359375 243.484375 159.03125 242.234375 C 161.550781 241.828125 164.117188 241.171875 166.140625 239.539062 C 168.960938 237.304688 170.804688 234.171875 172.253906 230.910156 C 174.570312 235.636719 177.859375 240.117188 179.109375 244.097656 C 185.179688 260.914062 186.679688 278.847656 189.546875 296.371094 C 189.722656 297.453125 189.957031 298.957031 190.167969 300.332031 C 189.464844 301.671875 186.382812 303.128906 182.9375 305.183594 C 181.21875 306.199219 179.472656 307.347656 178.535156 309.175781 C 177.632812 310.890625 177.726562 313.195312 179.007812 314.695312 C 180.140625 315.859375 181.789062 316.234375 183.308594 316.640625 C 185.839844 317.328125 188.476562 317.167969 191.011719 316.585938 C 191.835938 316.417969 192.65625 316.226562 193.480469 316.039062 C 208.054688 315.765625 222.636719 317.867188 237.210938 316.726562 C 251.636719 315.855469 265.984375 314.113281 280.25 311.839844 C 287.289062 310.582031 294.597656 310.121094 301.308594 307.582031 C 302.226562 307.46875 303.148438 307.347656 304.066406 307.214844 C 312.570312 306.410156 320.09375 301.839844 327.0625 297.199219 C 336.859375 289.925781 343.0625 278.597656 345.539062 266.78125 C 347.296875 257.644531 347.472656 248.222656 347.085938 238.953125 C 345.957031 224.503906 343.472656 214.152344 342.878906 201.011719 C 342.253906 193.175781 343.75 185.628906 346.574219 179.628906 C 348.546875 175.539062 351.398438 171.957031 353.476562 167.925781 Z M 353.476562 167.925781 " fill-opacity="1" fill-rule="nonzero"/><path fill="#fffbe6" d="M 117.976562 86.878906 C 117.261719 86.28125 116.222656 86.273438 115.367188 85.949219 C 113.398438 85.402344 111.484375 84.675781 109.574219 83.945312 C 107.117188 83.085938 105.441406 82.085938 102.59375 80.761719 C 101.222656 80.492188 100.53125 82.53125 101.753906 83.191406 C 105.394531 85.335938 109.332031 86.921875 113.308594 88.324219 C 114.382812 88.679688 115.472656 88.992188 116.558594 89.316406 C 117.105469 89.46875 117.773438 89.277344 118.09375 88.792969 C 118.5625 88.25 118.472656 87.375 117.976562 86.878906 Z M 117.976562 86.878906 " fill-opacity="1" fill-rule="nonzero"/><path fill="#fffbe6" d="M 186.71875 55.710938 C 183.941406 60.707031 179.484375 64.300781 174.765625 67.675781 C 174.089844 68.25 173.257812 68.671875 172.652344 69.3125 C 172 70.042969 172.453125 71.320312 173.390625 71.546875 C 174.511719 71.832031 175.242188 70.695312 176.074219 70.140625 C 176.570312 69.730469 178.582031 68.21875 179.949219 67.171875 C 183.527344 64.386719 186.808594 61.039062 189 57.042969 C 189.863281 55.554688 187.601562 54.226562 186.71875 55.710938 Z M 186.71875 55.710938 " fill-opacity="1" fill-rule="nonzero"/><path fill="#fffbe6" d="M 146.128906 122.046875 C 144.765625 121.9375 143.445312 122.585938 142.132812 122.871094 C 141.757812 122.96875 141.375 123.050781 141.039062 123.253906 C 140.515625 123.589844 140.414062 124.351562 140.800781 124.828125 C 141.792969 125.847656 143.042969 126.820312 144.363281 127.324219 C 144.582031 127.351562 144.761719 127.296875 144.917969 127.203125 C 145.050781 127.175781 145.1875 127.128906 145.320312 127.039062 C 145.546875 126.882812 145.707031 126.644531 145.800781 126.390625 C 146.273438 125.191406 146.003906 125.691406 146.589844 124.359375 C 147.082031 123.558594 147.261719 122.359375 146.128906 122.046875 Z M 146.128906 122.046875 " fill-opacity="1" fill-rule="nonzero"/><path fill="#fffbe6" d="M 254.171875 200.46875 C 245.507812 198.59375 236.53125 200.796875 228.847656 204.945312 C 221.941406 209.226562 216.550781 215.722656 212.78125 222.867188 C 206.597656 235.273438 206.027344 249.59375 206.453125 263.203125 C 206.90625 275.710938 209.039062 288.152344 212.742188 300.105469 C 212.917969 300.710938 213.128906 301.3125 213.292969 301.925781 C 212.695312 302.0625 211.027344 302.484375 210.527344 302.53125 C 204.671875 303.855469 196.667969 303.285156 193.496094 309.429688 C 192.496094 311.207031 191.800781 316.15625 195.179688 314.921875 C 196.546875 313.8125 195.761719 313.25 195.949219 312.402344 C 196.074219 311.472656 196.210938 311.175781 196.515625 310.558594 C 197.695312 308.417969 200.382812 307.390625 204.640625 306.738281 C 208.25 306.054688 212.109375 305.964844 215.507812 304.496094 C 217.347656 303.417969 216.523438 301.230469 215.992188 299.621094 C 215.339844 297.527344 214.714844 295.425781 214.167969 293.304688 C 212.632812 287.40625 211.40625 281.425781 210.609375 275.382812 C 208.9375 261.59375 208.226562 243.527344 213.386719 229.386719 C 215.820312 222.121094 222.628906 212.199219 230.390625 207.585938 C 235.597656 204.761719 241.757812 202.699219 247.484375 202.613281 C 249.457031 202.652344 251.460938 202.753906 252.464844 202.96875 C 253.144531 203.019531 253.867188 203.367188 254.5 202.980469 C 255.519531 202.4375 255.320312 200.734375 254.171875 200.46875 Z M 254.171875 200.46875 " fill-opacity="1" fill-rule="nonzero"/><path fill="#0a714e" d="M 23.527344 278.523438 C 23.605469 277.945312 23.449219 279.125 23.527344 278.523438 Z M 23.527344 278.523438 " fill-opacity="1" fill-rule="nonzero"/><path fill="#0a714e" d="M 23.527344 278.523438 C 23.523438 278.578125 23.511719 278.644531 23.5 278.734375 C 23.503906 278.613281 23.523438 278.496094 23.550781 278.382812 C 23.550781 278.363281 23.554688 278.34375 23.554688 278.320312 C 23.542969 278.40625 23.535156 278.46875 23.527344 278.523438 Z M 23.527344 278.523438 " fill-opacity="1" fill-rule="nonzero"/><g clip-path="url(#86c76fc179)"><path fill="#0a714e" d="M 173.9375 318.132812 C 173.628906 317.859375 173.289062 317.628906 172.9375 317.414062 C 172.601562 316.898438 172.011719 316.519531 171.632812 316.03125 C 169.476562 313.730469 167.566406 311.203125 165.335938 308.972656 C 165.019531 308.671875 164.707031 308.308594 164.300781 308.15625 C 164.054688 307.929688 163.8125 307.707031 163.617188 307.464844 C 161.65625 305.503906 159.753906 303.484375 157.835938 301.484375 C 157.972656 301.328125 158.097656 301.164062 158.195312 300.988281 C 160.128906 296.464844 152.613281 295.574219 149.679688 296.511719 C 149.542969 296.523438 149.421875 296.546875 149.304688 296.582031 C 149.230469 296.492188 149.164062 296.390625 149.082031 296.308594 C 150.816406 295.910156 152.652344 294.867188 152.808594 292.949219 C 152.875 291.761719 152.082031 290.722656 151.050781 290.214844 C 150.132812 289.738281 149.117188 289.539062 148.097656 289.550781 C 148.121094 289.492188 148.15625 289.4375 148.179688 289.375 C 148.777344 286.941406 147.449219 285.605469 145.539062 285.019531 C 145.265625 284.601562 144.847656 284.25 144.558594 283.859375 C 143.855469 283.027344 142.890625 281.59375 142.492188 281.046875 C 142 280.4375 141.582031 279.546875 140.753906 279.410156 C 140.066406 279.273438 138.484375 279.089844 137.390625 278.957031 C 127.980469 278.210938 118.566406 277.476562 109.140625 276.988281 C 107.75 276.949219 106.339844 276.847656 104.929688 276.789062 C 105.761719 275.617188 106.355469 274.261719 106.660156 272.890625 C 106.933594 271.425781 106.898438 269.917969 106.601562 268.457031 C 107.074219 268.476562 107.550781 268.480469 107.992188 268.582031 C 109.070312 268.6875 110.605469 268.777344 110.828125 268.832031 C 111.046875 269.542969 111.25 270.269531 111.773438 270.8125 C 113.570312 272.316406 115.011719 270.128906 115.25 268.4375 C 115.855469 264.578125 112.167969 265.570312 109.472656 265.265625 C 108.101562 265.199219 106.734375 265.113281 105.367188 265.023438 C 104.777344 263.882812 104.042969 262.816406 103.164062 261.90625 C 97.859375 257 91.054688 254.015625 86.503906 249.773438 C 80.453125 244.433594 76.039062 239.4375 72.109375 232.960938 C 69.242188 228.570312 67.125 223.308594 66.753906 219.199219 C 66.300781 215.632812 66.535156 211.964844 66.09375 208.425781 C 66.058594 208.324219 66.015625 208.238281 65.960938 208.160156 C 65.953125 207.816406 65.824219 207.480469 65.554688 207.226562 C 65.335938 206.816406 63.882812 206.695312 63.769531 206.695312 C 55.140625 205.671875 46.476562 205.03125 37.8125 204.433594 C 36.195312 204.324219 34.570312 204.160156 33.945312 204.015625 C 33.363281 203.90625 32.738281 203.675781 32.191406 204.023438 C 31.628906 204.328125 31.4375 204.960938 31.554688 205.527344 C 31.296875 206.027344 31.246094 206.640625 31.117188 207.179688 C 29.199219 219.597656 31.640625 232.5625 36.6875 243.980469 C 40.015625 250.546875 44.917969 256.207031 50.332031 261.144531 C 52.632812 263.214844 54.726562 264.597656 56.484375 265.917969 C 55.957031 265.96875 55.433594 266.011719 54.917969 266.050781 C 53.816406 266.09375 52.71875 266.144531 51.617188 266.199219 C 50.65625 266.238281 49.695312 266.265625 48.738281 266.332031 C 48.734375 266.351562 48.742188 266.386719 48.742188 266.410156 C 48.5625 266.421875 48.371094 266.433594 48.207031 266.449219 C 47.160156 266.8125 47.085938 268.382812 48.039062 268.90625 C 48.394531 269.128906 48.8125 269.097656 49.210938 269.09375 C 50.304688 269.105469 51.398438 269.089844 52.496094 269.0625 C 52.632812 271.316406 52.828125 273.5625 53.027344 275.808594 C 53.027344 275.859375 53.042969 275.902344 53.046875 275.949219 C 48.210938 276.265625 43.371094 276.59375 38.519531 276.6875 C 33.835938 276.785156 29.078125 276.753906 24.429688 277.078125 C 23.898438 277.269531 23.640625 277.71875 23.605469 278.195312 C 23.585938 278.257812 23.5625 278.320312 23.550781 278.382812 C 22.601562 289.28125 19.492188 303.433594 18.238281 314.214844 C 18.097656 315.246094 17.328125 321.816406 17.238281 323.230469 C 17.289062 323.910156 17.835938 324.289062 18.414062 324.339844 C 18.617188 324.476562 18.851562 324.570312 19.144531 324.5625 C 50.414062 324.464844 81.667969 323.324219 112.90625 322.125 C 125.015625 321.921875 137.125 322.042969 149.230469 321.695312 C 156.90625 321.460938 164.597656 321.796875 172.265625 321.382812 C 174 321.414062 175.292969 319.578125 173.9375 318.132812 Z M 150.109375 299.136719 C 152.539062 298.441406 155.078125 299.199219 155.679688 299.738281 C 155.671875 299.746094 155.671875 299.746094 155.664062 299.753906 C 154.828125 300.660156 150.625 300.761719 149.890625 299.921875 C 149.882812 299.910156 149.875 299.894531 149.867188 299.882812 C 149.980469 299.644531 150.066406 299.394531 150.109375 299.136719 Z M 150.753906 303.445312 C 151.390625 303.65625 151.46875 303.707031 151.605469 303.808594 C 150.566406 304.675781 148.589844 305.261719 146.75 305.300781 C 145.316406 305.203125 144.449219 304.761719 144.125 304.398438 C 144.125 304.378906 144.125 304.359375 144.125 304.335938 C 144.148438 304.292969 144.175781 304.25 144.203125 304.210938 C 144.3125 304.089844 144.472656 303.925781 144.582031 303.859375 C 145.261719 303.421875 148.445312 302.492188 150.753906 303.445312 Z M 143.972656 299.949219 C 143.886719 299.957031 143.800781 299.972656 143.71875 300 C 142.621094 299.984375 141.535156 299.765625 140.902344 299.492188 C 140.730469 299.414062 140.566406 299.320312 140.410156 299.214844 C 140.378906 299.1875 140.347656 299.160156 140.316406 299.132812 C 140.386719 299.058594 140.464844 298.992188 140.542969 298.925781 C 141.496094 298.324219 141.25 298.515625 141.8125 298.28125 C 144.1875 297.605469 144.59375 297.570312 146.417969 298.003906 C 146.480469 298.023438 146.542969 298.050781 146.601562 298.074219 C 146.65625 298.101562 146.730469 298.136719 146.820312 298.1875 C 146.914062 298.238281 147.007812 298.292969 147.097656 298.351562 C 147.132812 298.386719 147.171875 298.421875 147.210938 298.457031 C 147.214844 298.472656 147.21875 298.488281 147.226562 298.507812 C 147.226562 298.523438 147.222656 298.539062 147.222656 298.554688 C 147.183594 298.601562 147.144531 298.648438 147.101562 298.691406 C 147.042969 298.746094 146.988281 298.796875 146.9375 298.84375 C 146.734375 298.988281 146.519531 299.121094 146.300781 299.238281 C 146.109375 299.339844 145.914062 299.429688 145.714844 299.515625 C 145.703125 299.519531 145.695312 299.523438 145.679688 299.527344 C 145.402344 299.675781 144.238281 299.890625 143.972656 299.949219 Z M 125.894531 294.332031 C 127.746094 293.71875 130.527344 294.117188 130.898438 294.4375 C 130.90625 294.453125 130.910156 294.46875 130.914062 294.488281 C 130.902344 294.503906 130.890625 294.523438 130.878906 294.539062 C 130.269531 295.09375 128.996094 295.839844 127.707031 296.132812 C 127.183594 296.300781 126.941406 296.171875 126.191406 296.273438 C 125.410156 296.234375 124.738281 296.058594 124.210938 295.804688 C 124.179688 295.785156 124.148438 295.765625 124.117188 295.746094 C 124.089844 295.71875 124.0625 295.691406 124.035156 295.664062 C 124.015625 295.632812 124 295.597656 123.980469 295.5625 C 124.1875 295.078125 124.726562 294.769531 125.894531 294.332031 Z M 123.765625 290.703125 C 123.707031 290.847656 120.984375 291.605469 120.796875 291.53125 C 120.585938 291.582031 120.539062 291.519531 120.390625 291.5625 C 119.46875 291.554688 118.589844 291.390625 118.304688 291.164062 C 117.550781 290.78125 117.589844 290.804688 117.40625 290.613281 C 117.417969 290.570312 117.429688 290.527344 117.441406 290.484375 C 117.453125 290.472656 117.460938 290.453125 117.472656 290.4375 C 117.5625 290.335938 117.703125 290.183594 117.800781 290.113281 C 117.8125 290.101562 117.816406 290.101562 117.835938 290.089844 C 119.90625 288.792969 123.003906 288.625 124.667969 289.640625 C 124.675781 289.644531 124.683594 289.652344 124.695312 289.660156 C 124.757812 289.714844 124.808594 289.777344 124.863281 289.839844 C 124.867188 289.84375 124.867188 289.851562 124.871094 289.855469 C 124.871094 289.871094 124.871094 289.882812 124.871094 289.898438 C 124.871094 289.898438 124.867188 289.902344 124.867188 289.902344 C 124.867188 289.910156 124.859375 289.914062 124.859375 289.917969 C 124.773438 290.011719 124.636719 290.152344 124.511719 290.265625 C 124.414062 290.324219 123.949219 290.636719 123.765625 290.703125 Z M 129.15625 289.617188 C 129.15625 289.613281 129.160156 289.605469 129.160156 289.601562 C 129.183594 289.558594 129.210938 289.519531 129.238281 289.480469 C 129.265625 289.449219 129.292969 289.417969 129.335938 289.375 C 129.472656 289.214844 130.113281 288.792969 131.515625 288.566406 C 131.726562 288.546875 132.117188 288.511719 132.273438 288.523438 C 133.671875 288.5625 133.9375 288.5625 134.757812 288.972656 C 134.59375 289.117188 134.414062 289.1875 133.808594 289.472656 C 133.585938 289.554688 133.121094 289.730469 132.949219 289.769531 C 131.515625 290.21875 131.527344 289.957031 131.078125 290.175781 C 130.386719 290.171875 129.789062 290.050781 129.253906 289.726562 C 129.25 289.722656 129.25 289.722656 129.25 289.722656 C 129.238281 289.714844 129.234375 289.710938 129.21875 289.695312 C 129.195312 289.675781 129.179688 289.652344 129.160156 289.628906 C 129.160156 289.628906 129.160156 289.628906 129.15625 289.628906 C 129.15625 289.625 129.15625 289.621094 129.15625 289.617188 Z M 127.667969 300.8125 C 127.683594 300.800781 127.6875 300.796875 127.710938 300.78125 C 127.757812 300.75 127.804688 300.71875 127.851562 300.6875 C 129.292969 299.695312 132.546875 299.46875 133.980469 299.722656 C 135.28125 300.160156 134.792969 299.921875 135.597656 300.570312 C 135.609375 300.589844 135.625 300.613281 135.636719 300.632812 C 135.667969 300.726562 135.699219 300.820312 135.71875 300.917969 C 135.71875 300.921875 135.714844 300.921875 135.714844 300.925781 C 135.714844 300.933594 135.710938 300.9375 135.710938 300.945312 C 135.671875 301.019531 135.632812 301.097656 135.585938 301.164062 C 135.21875 301.742188 134.125 302.105469 132.867188 302.28125 C 132.851562 302.28125 132.84375 302.273438 132.832031 302.273438 C 130.027344 302.5625 128.316406 301.984375 127.679688 301.445312 C 127.632812 301.273438 127.5625 301.128906 127.46875 301.003906 C 127.527344 300.941406 127.597656 300.871094 127.667969 300.8125 Z M 135.613281 306.070312 C 134.707031 306.054688 133.816406 305.953125 133.316406 305.800781 C 133.332031 305.785156 133.34375 305.769531 133.359375 305.753906 C 133.375 305.742188 133.386719 305.730469 133.402344 305.71875 C 133.515625 305.640625 133.675781 305.527344 133.785156 305.46875 C 133.949219 305.347656 134.507812 305.078125 134.679688 304.996094 C 136.125 304.476562 137.136719 304.347656 137.777344 304.296875 C 139.238281 304.246094 139.800781 304.386719 140.257812 304.683594 C 140.234375 304.707031 140.214844 304.734375 140.1875 304.757812 C 139.90625 304.945312 139.597656 305.09375 139.285156 305.230469 C 136.304688 306.1875 137.015625 305.683594 135.613281 306.070312 Z M 139.105469 295.132812 C 138.910156 295.179688 138.753906 295.277344 138.617188 295.390625 C 137.28125 295.648438 136.34375 295.714844 135.082031 295.300781 C 135.015625 295.265625 134.941406 295.226562 134.882812 295.191406 C 134.820312 295.152344 134.773438 295.121094 134.730469 295.09375 C 134.691406 295.058594 134.648438 295.023438 134.609375 294.984375 C 134.605469 294.980469 134.605469 294.980469 134.601562 294.972656 C 134.585938 294.953125 134.574219 294.933594 134.5625 294.914062 C 134.5625 294.851562 134.566406 294.792969 134.574219 294.730469 C 134.578125 294.714844 134.585938 294.6875 134.59375 294.664062 C 134.621094 294.613281 134.652344 294.558594 134.683594 294.507812 C 134.765625 294.410156 134.890625 294.269531 134.984375 294.195312 C 135.988281 293.109375 140.597656 292.554688 142.019531 293.492188 C 142.042969 293.507812 142.046875 293.511719 142.066406 293.523438 C 142.070312 293.53125 142.078125 293.535156 142.085938 293.542969 C 141.980469 293.898438 141.445312 294.402344 140.613281 294.734375 C 140.335938 294.816406 139.355469 295.132812 139.105469 295.132812 Z M 148.859375 292.261719 C 149.804688 292.53125 149.429688 292.335938 150.097656 292.769531 C 150.117188 292.789062 150.132812 292.804688 150.152344 292.824219 C 150.152344 292.832031 150.152344 292.835938 150.15625 292.84375 C 150.152344 292.855469 150.152344 292.871094 150.144531 292.882812 C 149.894531 293.289062 148.800781 293.835938 147.035156 294.070312 C 146.65625 294.148438 146.246094 294.09375 145.867188 294.160156 C 145.550781 294.074219 145.527344 294.019531 145.226562 293.757812 C 145.191406 293.707031 145.160156 293.65625 145.132812 293.601562 C 145.125 293.578125 145.117188 293.554688 145.113281 293.527344 C 145.113281 293.515625 145.113281 293.5 145.113281 293.484375 C 145.117188 293.476562 145.117188 293.46875 145.121094 293.460938 C 145.527344 292.597656 147.441406 292.046875 148.859375 292.261719 Z M 145.402344 288.035156 C 145.433594 288.0625 145.464844 288.097656 145.492188 288.128906 C 145.507812 288.15625 145.511719 288.167969 145.523438 288.1875 C 145.539062 288.238281 145.554688 288.289062 145.566406 288.332031 C 145.566406 288.339844 145.566406 288.347656 145.5625 288.359375 C 145.550781 288.421875 145.53125 288.488281 145.511719 288.554688 C 145.492188 288.597656 145.460938 288.644531 145.429688 288.699219 C 145.367188 288.769531 145.285156 288.851562 145.203125 288.917969 C 144.800781 289.359375 142.917969 289.871094 141.195312 289.929688 C 140.035156 289.867188 139.09375 289.667969 138.792969 289.492188 C 138.734375 289.460938 138.675781 289.425781 138.621094 289.390625 C 138.53125 289.316406 138.453125 289.230469 138.371094 289.144531 C 138.371094 289.132812 138.371094 289.121094 138.371094 289.109375 C 138.378906 289.082031 138.386719 289.058594 138.394531 289.027344 C 138.421875 288.976562 138.453125 288.917969 138.492188 288.855469 C 138.496094 288.847656 138.496094 288.847656 138.503906 288.839844 C 138.84375 288.496094 138.734375 288.605469 139.652344 288.097656 C 139.761719 288.046875 139.847656 288.003906 139.90625 287.976562 C 139.957031 287.957031 140.007812 287.9375 140.058594 287.917969 C 140.503906 287.757812 140.964844 287.640625 141.429688 287.566406 C 141.4375 287.566406 141.441406 287.566406 141.449219 287.566406 C 143.804688 287.335938 145.121094 287.785156 145.402344 288.035156 Z M 57.9375 275.652344 C 58.058594 274.644531 57.648438 274.042969 57.667969 272.910156 C 57.46875 271.613281 57.460938 270.277344 57.367188 268.96875 C 58.019531 268.972656 58.675781 268.984375 59.332031 268.992188 C 59.476562 268.996094 59.625 268.980469 59.769531 268.945312 C 60.691406 270.066406 61.136719 271.105469 61.554688 273.035156 C 61.746094 274 61.621094 273.699219 61.835938 275.105469 C 61.832031 275.226562 61.859375 275.34375 61.894531 275.460938 C 60.574219 275.519531 59.253906 275.574219 57.9375 275.652344 Z M 97.484375 275.082031 C 97.207031 274.945312 96.929688 274.914062 96.667969 274.953125 C 96.515625 274.902344 96.351562 274.875 96.175781 274.878906 C 93.828125 274.917969 91.480469 274.941406 89.132812 274.960938 C 88.820312 274.882812 88.5 274.828125 88.171875 274.832031 C 87.785156 274.816406 87.429688 274.882812 87.085938 274.980469 C 79.558594 275.039062 72.027344 275.074219 64.503906 275.351562 C 64.542969 275.160156 64.546875 274.953125 64.484375 274.75 C 64.175781 268.09375 60.058594 264.992188 54.164062 260.753906 C 46.238281 254.285156 38.203125 245.179688 35.882812 234.207031 C 33.585938 225.425781 32.523438 215.675781 33.875 207.636719 C 33.910156 207.253906 33.964844 207.007812 34.011719 206.816406 C 39.246094 207.550781 44.570312 207.585938 49.828125 208.097656 C 55.261719 208.367188 59.480469 208.996094 63.476562 209.492188 C 63.703125 214.695312 63.765625 220.011719 65.34375 225.011719 C 68.789062 235.214844 75.742188 243.976562 83.601562 251.191406 C 88.917969 256.355469 98.390625 260.859375 101.625 264.648438 C 104.519531 268.566406 104.253906 273.097656 102.125 275.59375 C 101.332031 276.621094 101.199219 276.382812 100.339844 277.054688 C 100.289062 277.089844 100.242188 277.125 100.199219 277.167969 C 100.125 277.230469 100.050781 277.289062 99.964844 277.367188 C 99.871094 277.46875 99.804688 277.582031 99.753906 277.695312 C 99.015625 276.8125 98.464844 275.664062 97.484375 275.082031 Z M 125.792969 308.441406 C 119 300.363281 111.921875 292.527344 105.105469 284.472656 C 103.550781 282.574219 102.453125 281.15625 101.332031 279.710938 C 101.421875 279.695312 101.515625 279.675781 101.605469 279.640625 C 112.347656 280.25 129.429688 281.132812 139.859375 282.101562 C 140.679688 283.023438 141.4375 283.878906 142.128906 284.695312 C 140.765625 284.789062 139.453125 285.109375 138.519531 285.59375 C 137.765625 285.902344 137.117188 286.363281 136.625 286.902344 C 134.257812 285.089844 129.257812 285.609375 127.371094 287.515625 C 127.160156 287.714844 126.996094 287.949219 126.859375 288.199219 C 124.785156 285.363281 118.226562 286.1875 115.949219 288.265625 C 114.734375 289.242188 114.34375 291.175781 115.476562 292.363281 C 115.757812 292.660156 116.105469 292.902344 116.464844 293.097656 C 116.691406 293.230469 117.652344 293.617188 116.964844 293.332031 C 117.96875 293.808594 119.058594 294.050781 120.171875 294.054688 C 120.265625 294.050781 120.371094 294.050781 120.46875 294.046875 C 120.851562 294.125 121.246094 294.109375 121.640625 294.050781 C 120.957031 295.246094 121.144531 296.808594 122.316406 297.691406 C 123.285156 298.429688 124.484375 298.730469 125.695312 298.8125 C 125.457031 299.023438 125.234375 299.253906 125.046875 299.519531 C 124.425781 300.414062 124.476562 301.609375 124.976562 302.546875 C 125.175781 302.882812 125.453125 303.15625 125.75 303.40625 C 126.699219 304.449219 128.511719 305.003906 130.464844 305.125 C 130.15625 306.167969 130.394531 307.34375 131.417969 307.964844 C 131.742188 308.144531 132.082031 308.285156 132.425781 308.398438 C 130.214844 308.507812 127.996094 308.65625 125.792969 308.441406 Z M 148.910156 308.3125 C 145.75 308.328125 142.589844 308.273438 139.429688 308.273438 C 140.5 307.976562 141.664062 307.4375 142.4375 306.640625 C 142.652344 306.824219 142.902344 306.984375 143.179688 307.125 C 143.328125 307.277344 143.519531 307.410156 143.78125 307.5 C 147.246094 308.496094 151.816406 308.175781 154.207031 305.179688 C 154.644531 304.386719 154.703125 303.691406 154.523438 303.089844 C 154.867188 303.027344 155.199219 302.945312 155.519531 302.847656 C 155.578125 302.933594 155.640625 303.019531 155.722656 303.105469 C 157.300781 304.765625 158.882812 306.421875 160.484375 308.058594 C 156.625 308.058594 152.769531 308.296875 148.910156 308.3125 Z M 148.910156 308.3125 " fill-opacity="1" fill-rule="nonzero"/></g><path fill="#fffbe6" d="M 123.472656 317.941406 C 115.480469 308.761719 107.980469 299.167969 99.945312 290.019531 C 97.289062 287.222656 94.851562 284.089844 91.996094 281.539062 C 91.882812 281.484375 91.765625 281.453125 91.65625 281.433594 C 91.457031 281.328125 91.238281 281.257812 90.988281 281.265625 C 71.6875 281.90625 52.398438 282.710938 33.109375 283.527344 C 30.941406 283.589844 28.777344 283.683594 26.613281 283.652344 C 25.925781 283.703125 25.183594 283.410156 24.535156 283.683594 C 23.148438 284.179688 23.59375 286.417969 25.074219 286.363281 C 33.363281 286.628906 41.664062 285.890625 49.945312 285.539062 C 62.890625 285.171875 75.835938 284.726562 88.78125 284.320312 C 89.445312 284.238281 90.203125 284.378906 90.890625 284.320312 C 101.867188 295.761719 111.347656 308.488281 121.902344 320.304688 C 123.613281 321.683594 125.21875 319.230469 123.472656 317.941406 Z M 123.472656 317.941406 " fill-opacity="1" fill-rule="nonzero"/><path fill="#fffbe6" d="M 182.414062 103.742188 C 182.542969 104.320312 182.644531 104.902344 182.71875 105.492188 C 182.792969 106.078125 182.835938 106.667969 182.855469 107.257812 C 182.875 107.847656 182.867188 108.433594 182.835938 109.023438 C 182.800781 109.609375 182.738281 110.195312 182.648438 110.773438 C 182.558594 111.351562 182.441406 111.925781 182.300781 112.492188 C 182.15625 113.058594 181.988281 113.613281 181.792969 114.160156 C 181.601562 114.707031 181.378906 115.242188 181.136719 115.765625 C 180.890625 116.289062 180.621094 116.796875 180.328125 117.289062 C 180.039062 117.78125 179.722656 118.257812 179.386719 118.714844 C 179.046875 119.175781 178.691406 119.613281 178.3125 120.035156 C 177.933594 120.453125 177.535156 120.855469 177.117188 121.230469 C 176.699219 121.609375 176.265625 121.964844 175.816406 122.296875 C 175.363281 122.625 174.898438 122.933594 174.417969 123.214844 C 173.9375 123.496094 173.441406 123.753906 172.9375 123.984375 C 172.433594 124.210938 171.917969 124.414062 171.390625 124.589844 C 170.863281 124.765625 170.332031 124.914062 169.789062 125.03125 C 169.25 125.152344 168.703125 125.242188 168.152344 125.304688 C 167.601562 125.367188 167.046875 125.402344 166.492188 125.40625 C 165.9375 125.410156 165.382812 125.382812 164.828125 125.332031 C 164.273438 125.277344 163.722656 125.195312 163.171875 125.085938 C 162.625 124.972656 162.082031 124.835938 161.542969 124.667969 C 161.007812 124.5 160.476562 124.304688 159.957031 124.085938 C 159.4375 123.863281 158.925781 123.613281 158.425781 123.339844 C 157.929688 123.066406 157.441406 122.765625 156.96875 122.441406 C 156.496094 122.117188 156.039062 121.769531 155.597656 121.398438 C 155.15625 121.027344 154.730469 120.636719 154.324219 120.222656 C 153.917969 119.808594 153.53125 119.375 153.164062 118.921875 C 152.796875 118.464844 152.449219 117.996094 152.125 117.507812 C 151.800781 117.019531 151.5 116.515625 151.21875 115.996094 C 150.941406 115.480469 150.6875 114.949219 150.457031 114.40625 C 150.226562 113.863281 150.019531 113.308594 149.839844 112.746094 C 149.660156 112.179688 149.507812 111.609375 149.378906 111.03125 C 149.25 110.453125 149.152344 109.871094 149.078125 109.285156 C 149.003906 108.699219 148.957031 108.109375 148.9375 107.519531 C 148.917969 106.929688 148.925781 106.339844 148.960938 105.753906 C 148.996094 105.167969 149.058594 104.582031 149.144531 104.003906 C 149.234375 103.421875 149.351562 102.851562 149.492188 102.285156 C 149.636719 101.71875 149.804688 101.164062 150 100.617188 C 150.195312 100.070312 150.414062 99.535156 150.660156 99.011719 C 150.902344 98.488281 151.171875 97.980469 151.464844 97.488281 C 151.757812 96.996094 152.070312 96.519531 152.410156 96.0625 C 152.746094 95.601562 153.105469 95.164062 153.484375 94.742188 C 153.863281 94.320312 154.261719 93.921875 154.675781 93.546875 C 155.09375 93.167969 155.527344 92.8125 155.980469 92.480469 C 156.429688 92.148438 156.894531 91.84375 157.375 91.5625 C 157.855469 91.28125 158.351562 91.023438 158.855469 90.792969 C 159.363281 90.5625 159.878906 90.359375 160.402344 90.1875 C 160.929688 90.011719 161.464844 89.863281 162.003906 89.742188 C 162.546875 89.625 163.089844 89.535156 163.640625 89.472656 C 164.191406 89.410156 164.746094 89.375 165.300781 89.371094 C 165.855469 89.367188 166.410156 89.390625 166.964844 89.445312 C 167.519531 89.5 168.074219 89.582031 168.621094 89.691406 C 169.171875 89.804688 169.714844 89.941406 170.25 90.109375 C 170.789062 90.277344 171.316406 90.472656 171.835938 90.691406 C 172.359375 90.914062 172.867188 91.164062 173.367188 91.4375 C 173.867188 91.710938 174.351562 92.011719 174.824219 92.335938 C 175.296875 92.660156 175.753906 93.007812 176.195312 93.378906 C 176.636719 93.75 177.0625 94.140625 177.46875 94.554688 C 177.875 94.96875 178.261719 95.402344 178.628906 95.855469 C 178.996094 96.308594 179.34375 96.78125 179.667969 97.269531 C 179.992188 97.757812 180.292969 98.261719 180.574219 98.777344 C 180.851562 99.296875 181.109375 99.828125 181.339844 100.371094 C 181.570312 100.914062 181.773438 101.46875 181.953125 102.03125 C 182.132812 102.59375 182.289062 103.167969 182.414062 103.742188 Z M 182.414062 103.742188 " fill-opacity="1" fill-rule="nonzero"/><path fill="#fffbe6" d="M 135.164062 117.625 C 135.386719 118.632812 135.53125 119.644531 135.601562 120.660156 C 135.671875 121.679688 135.667969 122.683594 135.582031 123.679688 C 135.5 124.671875 135.339844 125.628906 135.109375 126.558594 C 134.875 127.488281 134.570312 128.363281 134.191406 129.191406 C 133.816406 130.019531 133.378906 130.785156 132.875 131.480469 C 132.371094 132.175781 131.816406 132.792969 131.203125 133.332031 C 130.59375 133.871094 129.941406 134.320312 129.246094 134.675781 C 128.550781 135.035156 127.828125 135.300781 127.074219 135.464844 C 126.320312 135.632812 125.554688 135.699219 124.773438 135.664062 C 123.988281 135.632812 123.207031 135.5 122.429688 135.269531 C 121.648438 135.035156 120.882812 134.710938 120.132812 134.289062 C 119.382812 133.871094 118.664062 133.363281 117.976562 132.769531 C 117.285156 132.175781 116.640625 131.507812 116.039062 130.765625 C 115.4375 130.019531 114.886719 129.21875 114.394531 128.351562 C 113.902344 127.488281 113.472656 126.578125 113.109375 125.625 C 112.746094 124.671875 112.453125 123.691406 112.230469 122.6875 C 112.007812 121.679688 111.863281 120.667969 111.792969 119.652344 C 111.71875 118.632812 111.726562 117.625 111.808594 116.632812 C 111.894531 115.640625 112.050781 114.683594 112.285156 113.753906 C 112.519531 112.824219 112.824219 111.949219 113.199219 111.121094 C 113.574219 110.292969 114.015625 109.527344 114.519531 108.832031 C 115.019531 108.136719 115.578125 107.519531 116.1875 106.980469 C 116.800781 106.441406 117.453125 105.992188 118.148438 105.632812 C 118.84375 105.277344 119.566406 105.011719 120.320312 104.847656 C 121.074219 104.679688 121.839844 104.613281 122.621094 104.648438 C 123.402344 104.679688 124.183594 104.8125 124.964844 105.042969 C 125.746094 105.277344 126.511719 105.601562 127.257812 106.023438 C 128.007812 106.441406 128.726562 106.949219 129.417969 107.542969 C 130.105469 108.136719 130.753906 108.804688 131.355469 109.546875 C 131.957031 110.292969 132.503906 111.09375 133 111.960938 C 133.492188 112.824219 133.921875 113.734375 134.285156 114.6875 C 134.648438 115.640625 134.941406 116.621094 135.164062 117.625 Z M 135.164062 117.625 " fill-opacity="1" fill-rule="nonzero"/><path fill="#0a714e" d="M 163.917969 115.300781 C 162.640625 112.375 161.804688 109.238281 160.640625 106.296875 C 159.757812 105.003906 157.605469 106.089844 158.070312 107.578125 C 158.855469 110.304688 159.632812 113.035156 160.558594 115.71875 C 160.964844 118.191406 164.355469 117.785156 163.917969 115.300781 Z M 163.917969 115.300781 " fill-opacity="1" fill-rule="nonzero"/><path fill="#0a714e" d="M 127.71875 124.640625 C 126.449219 121.808594 125.742188 119.777344 124.28125 116.507812 C 123.449219 115.300781 121.433594 116.316406 121.871094 117.710938 C 122.785156 120.164062 123.855469 122.554688 124.765625 125.007812 C 125.246094 125.949219 125.269531 127.265625 126.1875 127.898438 C 126.992188 128.390625 128.117188 127.921875 128.359375 127.015625 C 128.570312 126.175781 127.964844 125.410156 127.71875 124.640625 Z M 127.71875 124.640625 " fill-opacity="1" fill-rule="nonzero"/><g fill="#f5f6f8" fill-opacity="1"><g transform="translate(147.961097, 184.72721)"><g><path d="M 2.910156 -1.386719 C 3.339844 -1.617188 3.574219 -1.796875 3.71875 -2.023438 C 3.75 -2.105469 3.6875 -2.222656 3.578125 -2.304688 L 3.277344 -2.507812 C 3.121094 -2.585938 3.03125 -2.566406 2.953125 -2.496094 C 2.570312 -2.152344 1.699219 -1.703125 1.195312 -2.636719 L -0.503906 -5.753906 L 0.914062 -6.523438 C 1.082031 -6.613281 1.097656 -6.722656 1.003906 -6.898438 L 0.886719 -7.113281 C 0.789062 -7.292969 0.6875 -7.339844 0.523438 -7.246094 L -0.898438 -6.480469 L -1.433594 -7.46875 C -1.507812 -7.605469 -1.664062 -7.660156 -1.789062 -7.589844 L -2.164062 -7.390625 C -2.300781 -7.316406 -2.339844 -7.15625 -2.265625 -7.019531 L -1.730469 -6.027344 L -2.023438 -5.871094 C -2.199219 -5.773438 -2.214844 -5.664062 -2.121094 -5.488281 L -2.003906 -5.273438 C -1.910156 -5.097656 -1.796875 -5.054688 -1.632812 -5.144531 L -1.335938 -5.304688 L 0.402344 -2.089844 C 1.042969 -0.90625 1.980469 -0.882812 2.910156 -1.386719 Z M 2.910156 -1.386719 "/></g></g></g><g fill="#f5f6f8" fill-opacity="1"><g transform="translate(152.279007, 182.390689)"><g><path d="M 3.101562 -1.449219 C 4.738281 -2.335938 4.988281 -3.585938 3.921875 -5.554688 C 2.835938 -7.5625 1.644531 -8.054688 0.0078125 -7.171875 C -1.648438 -6.277344 -1.894531 -5 -0.808594 -2.992188 C 0.257812 -1.023438 1.445312 -0.554688 3.101562 -1.449219 Z M 0.0429688 -3.453125 C -0.742188 -4.90625 -0.617188 -5.796875 0.441406 -6.367188 C 1.480469 -6.929688 2.292969 -6.546875 3.078125 -5.097656 C 3.847656 -3.679688 3.710938 -2.804688 2.671875 -2.246094 C 1.617188 -1.671875 0.8125 -2.035156 0.0429688 -3.453125 Z M 0.0429688 -3.453125 "/></g></g></g><g fill="#f5f6f8" fill-opacity="1"><g transform="translate(158.271218, 179.148166)"><g><path d="M 3.035156 -1.4375 C 3.875 -1.894531 4.125 -2.347656 4.144531 -3.128906 C 4.234375 -2.960938 4.351562 -2.796875 4.453125 -2.652344 C 4.542969 -2.558594 4.671875 -2.527344 4.789062 -2.59375 L 6.0625 -3.28125 C 6.238281 -3.375 6.261719 -3.476562 6.160156 -3.664062 L 6.082031 -3.808594 C 5.980469 -3.996094 5.882812 -4.03125 5.707031 -3.9375 L 4.996094 -3.589844 L 2.585938 -8.046875 C 2.503906 -8.195312 2.328125 -8.238281 2.191406 -8.164062 L 0.953125 -7.480469 C 0.777344 -7.386719 0.734375 -7.273438 0.835938 -7.089844 L 0.917969 -6.941406 C 1.015625 -6.753906 1.132812 -6.730469 1.308594 -6.824219 L 1.964844 -7.15625 L 2.882812 -5.460938 C 3.773438 -3.816406 3.8125 -2.898438 2.804688 -2.351562 C 1.863281 -1.84375 1.4375 -2.046875 0.648438 -3.503906 L -0.8125 -6.207031 C -0.886719 -6.34375 -1.0625 -6.390625 -1.191406 -6.320312 L -2.425781 -5.652344 C -2.601562 -5.558594 -2.625 -5.457031 -2.523438 -5.269531 L -2.441406 -5.125 C -2.34375 -4.9375 -2.246094 -4.902344 -2.082031 -4.992188 L -1.433594 -5.316406 L -0.1875 -3.039062 C 0.957031 -0.949219 1.71875 -0.726562 3.035156 -1.4375 Z M 3.035156 -1.4375 "/></g></g></g><g fill="#f5f6f8" fill-opacity="1"><g transform="translate(164.99776, 175.508279)"><g><path d="M 3.105469 -1.464844 C 3.929688 -1.910156 4.671875 -2.882812 4.179688 -4.023438 C 4.089844 -4.261719 3.855469 -4.414062 3.636719 -4.300781 L 3.460938 -4.203125 C 3.285156 -4.109375 3.234375 -3.96875 3.285156 -3.804688 C 3.574219 -3.085938 3.152344 -2.503906 2.683594 -2.25 C 1.527344 -1.625 0.761719 -2.121094 0.0585938 -3.425781 C -0.726562 -4.875 -0.75 -5.671875 0.589844 -6.421875 C 1.167969 -6.734375 1.6875 -6.636719 1.886719 -6.480469 C 1.511719 -6.238281 1.46875 -5.921875 1.683594 -5.519531 C 1.933594 -5.0625 2.25 -4.964844 2.730469 -5.226562 C 3.222656 -5.492188 3.339844 -5.972656 3.054688 -6.503906 C 2.394531 -7.71875 1.214844 -7.773438 -0.0703125 -7.078125 C -1.636719 -6.230469 -1.835938 -4.933594 -0.824219 -3.023438 C 0.234375 -1.0625 1.492188 -0.589844 3.105469 -1.464844 Z M 3.105469 -1.464844 "/></g></g></g><g fill="#f5f6f8" fill-opacity="1"><g transform="translate(170.519986, 172.520076)"><g><path d="M 0.785156 -0.425781 L 2.96875 -1.605469 C 3.09375 -1.675781 3.105469 -1.769531 3.007812 -1.957031 L 2.949219 -2.0625 C 2.847656 -2.25 2.761719 -2.292969 2.636719 -2.238281 L 1.957031 -1.933594 L 1.039062 -3.625 C 0.148438 -5.273438 0.117188 -6.191406 0.992188 -6.664062 C 1.929688 -7.175781 2.394531 -6.878906 3.183594 -5.421875 L 4.375 -3.242188 L 3.746094 -2.835938 C 3.632812 -2.765625 3.621094 -2.667969 3.722656 -2.484375 L 3.78125 -2.375 C 3.882812 -2.1875 3.96875 -2.148438 4.085938 -2.210938 L 6.160156 -3.335938 C 6.335938 -3.429688 6.347656 -3.523438 6.25 -3.710938 L 6.191406 -3.816406 C 6.089844 -4.003906 6.003906 -4.046875 5.8125 -3.957031 L 5.21875 -3.695312 L 4.023438 -5.902344 C 2.886719 -7.980469 2.0625 -8.285156 0.652344 -7.519531 C 0.0546875 -7.199219 -0.195312 -6.746094 -0.253906 -6.015625 L -1.765625 -8.808594 C -1.851562 -8.964844 -2.035156 -9.027344 -2.183594 -8.949219 L -3.457031 -8.261719 C -3.632812 -8.164062 -3.65625 -8.066406 -3.554688 -7.878906 L -3.472656 -7.730469 C -3.375 -7.546875 -3.277344 -7.507812 -3.113281 -7.597656 L -2.386719 -7.941406 L 1.113281 -1.476562 L 0.433594 -1.046875 C 0.273438 -0.945312 0.25 -0.84375 0.351562 -0.660156 L 0.410156 -0.550781 C 0.511719 -0.367188 0.605469 -0.328125 0.785156 -0.425781 Z M 0.785156 -0.425781 "/></g></g></g><g fill="#f5f6f8" fill-opacity="1"><g transform="translate(177.334657, 168.8325)"><g><path d="M 2.910156 -1.386719 C 3.339844 -1.617188 3.574219 -1.796875 3.71875 -2.023438 C 3.75 -2.105469 3.6875 -2.222656 3.578125 -2.304688 L 3.277344 -2.507812 C 3.121094 -2.585938 3.03125 -2.566406 2.953125 -2.496094 C 2.570312 -2.152344 1.699219 -1.703125 1.195312 -2.636719 L -0.503906 -5.753906 L 0.914062 -6.523438 C 1.082031 -6.613281 1.097656 -6.722656 1.003906 -6.898438 L 0.886719 -7.113281 C 0.789062 -7.292969 0.6875 -7.339844 0.523438 -7.246094 L -0.898438 -6.480469 L -1.433594 -7.46875 C -1.507812 -7.605469 -1.664062 -7.660156 -1.789062 -7.589844 L -2.164062 -7.390625 C -2.300781 -7.316406 -2.339844 -7.15625 -2.265625 -7.019531 L -1.730469 -6.027344 L -2.023438 -5.871094 C -2.199219 -5.773438 -2.214844 -5.664062 -2.121094 -5.488281 L -2.003906 -5.273438 C -1.910156 -5.097656 -1.796875 -5.054688 -1.632812 -5.144531 L -1.335938 -5.304688 L 0.402344 -2.089844 C 1.042969 -0.90625 1.980469 -0.882812 2.910156 -1.386719 Z M 2.910156 -1.386719 "/></g></g></g><g fill="#f5f6f8" fill-opacity="1"><g transform="translate(181.652566, 166.49598)"><g><path d="M 2.886719 1.566406 C 3.972656 0.976562 3.828125 -0.222656 3.675781 -1.328125 L 2.765625 -7.523438 L 3.039062 -7.746094 C 3.199219 -7.847656 3.210938 -7.941406 3.121094 -8.109375 L 3.03125 -8.277344 C 2.9375 -8.453125 2.824219 -8.492188 2.660156 -8.402344 L 0.855469 -7.429688 C 0.75 -7.371094 0.710938 -7.25 0.808594 -7.074219 L 0.890625 -6.914062 C 0.988281 -6.738281 1.089844 -6.691406 1.210938 -6.746094 L 1.914062 -7.0625 L 2.691406 -2.582031 L -0.679688 -5.660156 L -0.0234375 -6.078125 C 0.0898438 -6.152344 0.105469 -6.261719 0.0117188 -6.4375 L -0.0742188 -6.59375 C -0.167969 -6.773438 -0.289062 -6.808594 -0.398438 -6.75 L -2.308594 -5.714844 C -2.472656 -5.625 -2.492188 -5.515625 -2.394531 -5.339844 L -2.3125 -5.183594 C -2.214844 -5.007812 -2.128906 -4.964844 -1.957031 -5.042969 L -1.535156 -5.199219 L 2.820312 -1.273438 C 2.910156 -0.359375 3.191406 0.5625 2.535156 0.917969 C 2.164062 1.121094 1.734375 1.101562 1.609375 0.941406 C 1.953125 0.777344 2.015625 0.492188 1.824219 0.140625 C 1.613281 -0.25 1.34375 -0.324219 0.925781 -0.09375 C 0.53125 0.117188 0.382812 0.566406 0.621094 1.007812 C 1.160156 2.003906 2.191406 1.941406 2.886719 1.566406 Z M 2.886719 1.566406 "/></g></g></g><g fill="#f5f6f8" fill-opacity="1"><g transform="translate(187.664353, 163.242864)"><g><path d="M 1.429688 1.9375 L 3.652344 0.734375 C 3.828125 0.636719 3.851562 0.539062 3.75 0.351562 L 3.691406 0.246094 C 3.589844 0.0585938 3.492188 0.0195312 3.324219 0.101562 L 2.585938 0.425781 L 1.410156 -1.75 C 1.945312 -1.457031 2.632812 -1.222656 3.425781 -1.652344 C 4.804688 -2.398438 5.054688 -3.671875 3.960938 -5.691406 C 2.949219 -7.5625 1.789062 -7.972656 0.527344 -7.289062 C -0.441406 -6.761719 -0.660156 -6.113281 -0.714844 -5.511719 L -1.042969 -6.097656 C -1.128906 -6.226562 -1.289062 -6.265625 -1.417969 -6.199219 L -2.640625 -5.535156 C -2.796875 -5.449219 -2.808594 -5.355469 -2.707031 -5.167969 L -2.628906 -5.023438 C -2.527344 -4.835938 -2.441406 -4.792969 -2.285156 -4.878906 L -1.566406 -5.230469 L 1.742188 0.878906 L 1.097656 1.304688 C 0.917969 1.414062 0.90625 1.511719 1.007812 1.695312 L 1.066406 1.804688 C 1.164062 1.992188 1.25 2.03125 1.429688 1.9375 Z M 0.34375 -3.71875 C -0.273438 -4.855469 -0.214844 -5.875 0.636719 -6.335938 C 1.742188 -6.933594 2.410156 -6.546875 3.125 -5.222656 C 3.910156 -3.773438 3.902344 -2.945312 2.792969 -2.347656 C 1.941406 -1.886719 1.058594 -2.394531 0.34375 -3.71875 Z M 0.34375 -3.71875 "/></g></g></g><g fill="#f5f6f8" fill-opacity="1"><g transform="translate(193.73489, 159.957957)"><g><path d="M 3.097656 -1.460938 C 3.921875 -1.90625 4.671875 -2.691406 4.308594 -3.761719 C 4.214844 -4.003906 3.980469 -4.15625 3.765625 -4.039062 L 3.582031 -3.9375 C 3.414062 -3.847656 3.378906 -3.703125 3.414062 -3.542969 C 3.613281 -2.941406 3.132812 -2.492188 2.671875 -2.246094 C 1.714844 -1.726562 0.875 -2.054688 0.234375 -3.128906 L 3.414062 -4.875 C 3.609375 -4.980469 3.699219 -5.21875 3.578125 -5.441406 C 2.472656 -7.339844 1.402344 -7.914062 -0.113281 -7.09375 C -1.613281 -6.28125 -1.96875 -5.140625 -0.714844 -2.816406 C 0.265625 -1.003906 1.617188 -0.660156 3.097656 -1.460938 Z M -0.132812 -3.828125 C -0.726562 -5.039062 -0.585938 -5.785156 0.324219 -6.28125 C 1.292969 -6.804688 1.878906 -6.449219 2.550781 -5.28125 Z M -0.132812 -3.828125 "/></g></g></g><g fill="#7ed957" fill-opacity="1"><g transform="translate(199.411382, 156.886276)"><g><path d="M 0.792969 -0.429688 L 2.9375 -1.589844 C 3.113281 -1.6875 3.136719 -1.785156 3.035156 -1.972656 L 2.925781 -2.179688 C 2.824219 -2.363281 2.726562 -2.402344 2.546875 -2.316406 L 1.671875 -1.917969 L 0.820312 -3.496094 L 1.523438 -3.875 C 3.566406 -4.996094 4.078125 -6.15625 3.265625 -7.65625 C 2.40625 -9.242188 1.339844 -9.578125 -0.3125 -8.695312 L -2.917969 -7.285156 C -3.101562 -7.183594 -3.113281 -7.089844 -3.019531 -6.914062 L -2.898438 -6.6875 C -2.796875 -6.503906 -2.699219 -6.464844 -2.523438 -6.5625 L -2.042969 -6.746094 L 0.820312 -1.457031 L 0.402344 -1.152344 C 0.230469 -1.050781 0.207031 -0.949219 0.308594 -0.761719 L 0.421875 -0.558594 C 0.519531 -0.371094 0.605469 -0.328125 0.792969 -0.429688 Z M 0.4375 -4.199219 L -1.222656 -7.265625 L -0.300781 -7.765625 C 1.335938 -8.648438 1.882812 -8.25 2.457031 -7.179688 C 3.003906 -6.171875 2.640625 -5.394531 1.171875 -4.597656 Z M 0.4375 -4.199219 "/></g></g></g><g fill="#7ed957" fill-opacity="1"><g transform="translate(205.599416, 153.537788)"><g><path d="M 0.636719 -0.34375 L 2.996094 -1.621094 C 3.183594 -1.722656 3.195312 -1.816406 3.09375 -2.003906 L 3.035156 -2.113281 C 2.9375 -2.296875 2.839844 -2.335938 2.65625 -2.25 L 1.820312 -1.859375 L 0.683594 -3.980469 C -0.03125 -5.300781 0.296875 -6.238281 1.050781 -6.648438 C 1.304688 -6.785156 1.550781 -6.800781 1.605469 -6.695312 C 1.28125 -6.546875 1.160156 -6.238281 1.347656 -5.882812 C 1.550781 -5.511719 1.816406 -5.441406 2.257812 -5.679688 C 2.640625 -5.910156 2.9375 -6.4375 2.640625 -6.988281 C 2.105469 -7.976562 1.210938 -7.824219 0.671875 -7.53125 C 0.191406 -7.273438 -0.339844 -6.550781 -0.359375 -5.882812 C -0.449219 -6.050781 -0.566406 -6.214844 -0.667969 -6.363281 C -0.757812 -6.453125 -0.886719 -6.484375 -1.003906 -6.421875 L -2.277344 -5.730469 C -2.453125 -5.636719 -2.464844 -5.542969 -2.367188 -5.355469 L -2.285156 -5.207031 C -2.1875 -5.023438 -2.101562 -4.980469 -1.921875 -5.074219 L -1.203125 -5.429688 L 0.976562 -1.402344 L 0.296875 -0.972656 C 0.125 -0.867188 0.113281 -0.769531 0.214844 -0.585938 L 0.273438 -0.476562 C 0.375 -0.292969 0.460938 -0.25 0.636719 -0.34375 Z M 0.636719 -0.34375 "/></g></g></g><g fill="#7ed957" fill-opacity="1"><g transform="translate(210.974774, 150.629058)"><g><path d="M 3.101562 -1.449219 C 4.738281 -2.335938 4.988281 -3.585938 3.921875 -5.554688 C 2.835938 -7.5625 1.644531 -8.054688 0.0078125 -7.171875 C -1.648438 -6.277344 -1.894531 -5 -0.808594 -2.992188 C 0.257812 -1.023438 1.445312 -0.554688 3.101562 -1.449219 Z M 0.0429688 -3.453125 C -0.742188 -4.90625 -0.617188 -5.796875 0.441406 -6.367188 C 1.480469 -6.929688 2.292969 -6.546875 3.078125 -5.097656 C 3.847656 -3.679688 3.710938 -2.804688 2.671875 -2.246094 C 1.617188 -1.671875 0.8125 -2.035156 0.0429688 -3.453125 Z M 0.0429688 -3.453125 "/></g></g></g></svg>